<?xml version="1.0" standalone="yes"?>
<svg version="1.1" xmlns="http://www.w3.org/2000/svg" xmlns:xlink="http://www.w3.org/1999/xlink" xmlns:ev="http://www.w3.org/2001/xml-events" width="222" height="222" shape-rendering="crispEdges">
<rect width="6" height="6" x="0" y="0" style="fill:#000"/><rect width="6" height="6" x="6" y="0" style="fill:#000"/><rect width="6" height="6" x="12" y="0" style="fill:#000"/><rect width="6" height="6" x="18" y="0" style="fill:#000"/><rect width="6" height="6" x="24" y="0" style="fill:#000"/><rect width="6" height="6" x="30" y="0" style="fill:#000"/><rect width="6" height="6" x="36" y="0" style="fill:#000"/><rect width="6" height="6" x="66" y="0" style="fill:#000"/><rect width="6" height="6" x="72" y="0" style="fill:#000"/><rect width="6" height="6" x="90" y="0" style="fill:#000"/><rect width="6" height="6" x="96" y="0" style="fill:#000"/><rect width="6" height="6" x="102" y="0" style="fill:#000"/><rect width="6" height="6" x="138" y="0" style="fill:#000"/><rect width="6" height="6" x="144" y="0" style="fill:#000"/><rect width="6" height="6" x="180" y="0" style="fill:#000"/><rect width="6" height="6" x="186" y="0" style="fill:#000"/><rect width="6" height="6" x="192" y="0" style="fill:#000"/><rect width="6" height="6" x="198" y="0" style="fill:#000"/><rect width="6" height="6" x="204" y="0" style="fill:#000"/><rect width="6" height="6" x="210" y="0" style="fill:#000"/><rect width="6" height="6" x="216" y="0" style="fill:#000"/>
<rect width="6" height="6" x="0" y="6" style="fill:#000"/><rect width="6" height="6" x="36" y="6" style="fill:#000"/><rect width="6" height="6" x="54" y="6" style="fill:#000"/><rect width="6" height="6" x="60" y="6" style="fill:#000"/><rect width="6" height="6" x="66" y="6" style="fill:#000"/><rect width="6" height="6" x="72" y="6" style="fill:#000"/><rect width="6" height="6" x="84" y="6" style="fill:#000"/><rect width="6" height="6" x="90" y="6" style="fill:#000"/><rect width="6" height="6" x="96" y="6" style="fill:#000"/><rect width="6" height="6" x="120" y="6" style="fill:#000"/><rect width="6" height="6" x="126" y="6" style="fill:#000"/><rect width="6" height="6" x="132" y="6" style="fill:#000"/><rect width="6" height="6" x="168" y="6" style="fill:#000"/><rect width="6" height="6" x="180" y="6" style="fill:#000"/><rect width="6" height="6" x="216" y="6" style="fill:#000"/>
<rect width="6" height="6" x="0" y="12" style="fill:#000"/><rect width="6" height="6" x="12" y="12" style="fill:#000"/><rect width="6" height="6" x="18" y="12" style="fill:#000"/><rect width="6" height="6" x="24" y="12" style="fill:#000"/><rect width="6" height="6" x="36" y="12" style="fill:#000"/><rect width="6" height="6" x="48" y="12" style="fill:#000"/><rect width="6" height="6" x="54" y="12" style="fill:#000"/><rect width="6" height="6" x="78" y="12" style="fill:#000"/><rect width="6" height="6" x="84" y="12" style="fill:#000"/><rect width="6" height="6" x="96" y="12" style="fill:#000"/><rect width="6" height="6" x="114" y="12" style="fill:#000"/><rect width="6" height="6" x="138" y="12" style="fill:#000"/><rect width="6" height="6" x="144" y="12" style="fill:#000"/><rect width="6" height="6" x="150" y="12" style="fill:#000"/><rect width="6" height="6" x="156" y="12" style="fill:#000"/><rect width="6" height="6" x="162" y="12" style="fill:#000"/><rect width="6" height="6" x="168" y="12" style="fill:#000"/><rect width="6" height="6" x="180" y="12" style="fill:#000"/><rect width="6" height="6" x="192" y="12" style="fill:#000"/><rect width="6" height="6" x="198" y="12" style="fill:#000"/><rect width="6" height="6" x="204" y="12" style="fill:#000"/><rect width="6" height="6" x="216" y="12" style="fill:#000"/>
<rect width="6" height="6" x="0" y="18" style="fill:#000"/><rect width="6" height="6" x="12" y="18" style="fill:#000"/><rect width="6" height="6" x="18" y="18" style="fill:#000"/><rect width="6" height="6" x="24" y="18" style="fill:#000"/><rect width="6" height="6" x="36" y="18" style="fill:#000"/><rect width="6" height="6" x="48" y="18" style="fill:#000"/><rect width="6" height="6" x="60" y="18" style="fill:#000"/><rect width="6" height="6" x="90" y="18" style="fill:#000"/><rect width="6" height="6" x="96" y="18" style="fill:#000"/><rect width="6" height="6" x="114" y="18" style="fill:#000"/><rect width="6" height="6" x="120" y="18" style="fill:#000"/><rect width="6" height="6" x="126" y="18" style="fill:#000"/><rect width="6" height="6" x="132" y="18" style="fill:#000"/><rect width="6" height="6" x="138" y="18" style="fill:#000"/><rect width="6" height="6" x="150" y="18" style="fill:#000"/><rect width="6" height="6" x="168" y="18" style="fill:#000"/><rect width="6" height="6" x="180" y="18" style="fill:#000"/><rect width="6" height="6" x="192" y="18" style="fill:#000"/><rect width="6" height="6" x="198" y="18" style="fill:#000"/><rect width="6" height="6" x="204" y="18" style="fill:#000"/><rect width="6" height="6" x="216" y="18" style="fill:#000"/>
<rect width="6" height="6" x="0" y="24" style="fill:#000"/><rect width="6" height="6" x="12" y="24" style="fill:#000"/><rect width="6" height="6" x="18" y="24" style="fill:#000"/><rect width="6" height="6" x="24" y="24" style="fill:#000"/><rect width="6" height="6" x="36" y="24" style="fill:#000"/><rect width="6" height="6" x="60" y="24" style="fill:#000"/><rect width="6" height="6" x="66" y="24" style="fill:#000"/><rect width="6" height="6" x="102" y="24" style="fill:#000"/><rect width="6" height="6" x="114" y="24" style="fill:#000"/><rect width="6" height="6" x="120" y="24" style="fill:#000"/><rect width="6" height="6" x="132" y="24" style="fill:#000"/><rect width="6" height="6" x="144" y="24" style="fill:#000"/><rect width="6" height="6" x="168" y="24" style="fill:#000"/><rect width="6" height="6" x="180" y="24" style="fill:#000"/><rect width="6" height="6" x="192" y="24" style="fill:#000"/><rect width="6" height="6" x="198" y="24" style="fill:#000"/><rect width="6" height="6" x="204" y="24" style="fill:#000"/><rect width="6" height="6" x="216" y="24" style="fill:#000"/>
<rect width="6" height="6" x="0" y="30" style="fill:#000"/><rect width="6" height="6" x="36" y="30" style="fill:#000"/><rect width="6" height="6" x="78" y="30" style="fill:#000"/><rect width="6" height="6" x="84" y="30" style="fill:#000"/><rect width="6" height="6" x="96" y="30" style="fill:#000"/><rect width="6" height="6" x="108" y="30" style="fill:#000"/><rect width="6" height="6" x="132" y="30" style="fill:#000"/><rect width="6" height="6" x="144" y="30" style="fill:#000"/><rect width="6" height="6" x="180" y="30" style="fill:#000"/><rect width="6" height="6" x="216" y="30" style="fill:#000"/>
<rect width="6" height="6" x="0" y="36" style="fill:#000"/><rect width="6" height="6" x="6" y="36" style="fill:#000"/><rect width="6" height="6" x="12" y="36" style="fill:#000"/><rect width="6" height="6" x="18" y="36" style="fill:#000"/><rect width="6" height="6" x="24" y="36" style="fill:#000"/><rect width="6" height="6" x="30" y="36" style="fill:#000"/><rect width="6" height="6" x="36" y="36" style="fill:#000"/><rect width="6" height="6" x="48" y="36" style="fill:#000"/><rect width="6" height="6" x="60" y="36" style="fill:#000"/><rect width="6" height="6" x="72" y="36" style="fill:#000"/><rect width="6" height="6" x="84" y="36" style="fill:#000"/><rect width="6" height="6" x="96" y="36" style="fill:#000"/><rect width="6" height="6" x="108" y="36" style="fill:#000"/><rect width="6" height="6" x="120" y="36" style="fill:#000"/><rect width="6" height="6" x="132" y="36" style="fill:#000"/><rect width="6" height="6" x="144" y="36" style="fill:#000"/><rect width="6" height="6" x="156" y="36" style="fill:#000"/><rect width="6" height="6" x="168" y="36" style="fill:#000"/><rect width="6" height="6" x="180" y="36" style="fill:#000"/><rect width="6" height="6" x="186" y="36" style="fill:#000"/><rect width="6" height="6" x="192" y="36" style="fill:#000"/><rect width="6" height="6" x="198" y="36" style="fill:#000"/><rect width="6" height="6" x="204" y="36" style="fill:#000"/><rect width="6" height="6" x="210" y="36" style="fill:#000"/><rect width="6" height="6" x="216" y="36" style="fill:#000"/>
<rect width="6" height="6" x="66" y="42" style="fill:#000"/><rect width="6" height="6" x="78" y="42" style="fill:#000"/><rect width="6" height="6" x="84" y="42" style="fill:#000"/><rect width="6" height="6" x="108" y="42" style="fill:#000"/><rect width="6" height="6" x="144" y="42" style="fill:#000"/><rect width="6" height="6" x="150" y="42" style="fill:#000"/><rect width="6" height="6" x="162" y="42" style="fill:#000"/><rect width="6" height="6" x="168" y="42" style="fill:#000"/>
<rect width="6" height="6" x="18" y="48" style="fill:#000"/><rect width="6" height="6" x="24" y="48" style="fill:#000"/><rect width="6" height="6" x="36" y="48" style="fill:#000"/><rect width="6" height="6" x="42" y="48" style="fill:#000"/><rect width="6" height="6" x="66" y="48" style="fill:#000"/><rect width="6" height="6" x="78" y="48" style="fill:#000"/><rect width="6" height="6" x="90" y="48" style="fill:#000"/><rect width="6" height="6" x="96" y="48" style="fill:#000"/><rect width="6" height="6" x="114" y="48" style="fill:#000"/><rect width="6" height="6" x="120" y="48" style="fill:#000"/><rect width="6" height="6" x="138" y="48" style="fill:#000"/><rect width="6" height="6" x="150" y="48" style="fill:#000"/><rect width="6" height="6" x="168" y="48" style="fill:#000"/><rect width="6" height="6" x="198" y="48" style="fill:#000"/><rect width="6" height="6" x="204" y="48" style="fill:#000"/>
<rect width="6" height="6" x="0" y="54" style="fill:#000"/><rect width="6" height="6" x="6" y="54" style="fill:#000"/><rect width="6" height="6" x="24" y="54" style="fill:#000"/><rect width="6" height="6" x="48" y="54" style="fill:#000"/><rect width="6" height="6" x="54" y="54" style="fill:#000"/><rect width="6" height="6" x="66" y="54" style="fill:#000"/><rect width="6" height="6" x="72" y="54" style="fill:#000"/><rect width="6" height="6" x="120" y="54" style="fill:#000"/><rect width="6" height="6" x="132" y="54" style="fill:#000"/><rect width="6" height="6" x="138" y="54" style="fill:#000"/><rect width="6" height="6" x="144" y="54" style="fill:#000"/><rect width="6" height="6" x="174" y="54" style="fill:#000"/><rect width="6" height="6" x="180" y="54" style="fill:#000"/><rect width="6" height="6" x="192" y="54" style="fill:#000"/><rect width="6" height="6" x="198" y="54" style="fill:#000"/><rect width="6" height="6" x="204" y="54" style="fill:#000"/>
<rect width="6" height="6" x="0" y="60" style="fill:#000"/><rect width="6" height="6" x="6" y="60" style="fill:#000"/><rect width="6" height="6" x="18" y="60" style="fill:#000"/><rect width="6" height="6" x="36" y="60" style="fill:#000"/><rect width="6" height="6" x="48" y="60" style="fill:#000"/><rect width="6" height="6" x="60" y="60" style="fill:#000"/><rect width="6" height="6" x="66" y="60" style="fill:#000"/><rect width="6" height="6" x="72" y="60" style="fill:#000"/><rect width="6" height="6" x="102" y="60" style="fill:#000"/><rect width="6" height="6" x="126" y="60" style="fill:#000"/><rect width="6" height="6" x="132" y="60" style="fill:#000"/><rect width="6" height="6" x="138" y="60" style="fill:#000"/><rect width="6" height="6" x="156" y="60" style="fill:#000"/><rect width="6" height="6" x="174" y="60" style="fill:#000"/><rect width="6" height="6" x="180" y="60" style="fill:#000"/><rect width="6" height="6" x="186" y="60" style="fill:#000"/><rect width="6" height="6" x="192" y="60" style="fill:#000"/><rect width="6" height="6" x="198" y="60" style="fill:#000"/><rect width="6" height="6" x="210" y="60" style="fill:#000"/><rect width="6" height="6" x="216" y="60" style="fill:#000"/>
<rect width="6" height="6" x="0" y="66" style="fill:#000"/><rect width="6" height="6" x="6" y="66" style="fill:#000"/><rect width="6" height="6" x="18" y="66" style="fill:#000"/><rect width="6" height="6" x="42" y="66" style="fill:#000"/><rect width="6" height="6" x="48" y="66" style="fill:#000"/><rect width="6" height="6" x="72" y="66" style="fill:#000"/><rect width="6" height="6" x="90" y="66" style="fill:#000"/><rect width="6" height="6" x="96" y="66" style="fill:#000"/><rect width="6" height="6" x="102" y="66" style="fill:#000"/><rect width="6" height="6" x="114" y="66" style="fill:#000"/><rect width="6" height="6" x="138" y="66" style="fill:#000"/><rect width="6" height="6" x="144" y="66" style="fill:#000"/><rect width="6" height="6" x="156" y="66" style="fill:#000"/><rect width="6" height="6" x="162" y="66" style="fill:#000"/><rect width="6" height="6" x="174" y="66" style="fill:#000"/><rect width="6" height="6" x="180" y="66" style="fill:#000"/><rect width="6" height="6" x="204" y="66" style="fill:#000"/>
<rect width="6" height="6" x="0" y="72" style="fill:#000"/><rect width="6" height="6" x="6" y="72" style="fill:#000"/><rect width="6" height="6" x="12" y="72" style="fill:#000"/><rect width="6" height="6" x="24" y="72" style="fill:#000"/><rect width="6" height="6" x="30" y="72" style="fill:#000"/><rect width="6" height="6" x="36" y="72" style="fill:#000"/><rect width="6" height="6" x="42" y="72" style="fill:#000"/><rect width="6" height="6" x="48" y="72" style="fill:#000"/><rect width="6" height="6" x="54" y="72" style="fill:#000"/><rect width="6" height="6" x="60" y="72" style="fill:#000"/><rect width="6" height="6" x="66" y="72" style="fill:#000"/><rect width="6" height="6" x="78" y="72" style="fill:#000"/><rect width="6" height="6" x="108" y="72" style="fill:#000"/><rect width="6" height="6" x="120" y="72" style="fill:#000"/><rect width="6" height="6" x="126" y="72" style="fill:#000"/><rect width="6" height="6" x="168" y="72" style="fill:#000"/><rect width="6" height="6" x="174" y="72" style="fill:#000"/><rect width="6" height="6" x="180" y="72" style="fill:#000"/><rect width="6" height="6" x="186" y="72" style="fill:#000"/><rect width="6" height="6" x="198" y="72" style="fill:#000"/><rect width="6" height="6" x="210" y="72" style="fill:#000"/>
<rect width="6" height="6" x="0" y="78" style="fill:#000"/><rect width="6" height="6" x="6" y="78" style="fill:#000"/><rect width="6" height="6" x="18" y="78" style="fill:#000"/><rect width="6" height="6" x="24" y="78" style="fill:#000"/><rect width="6" height="6" x="30" y="78" style="fill:#000"/><rect width="6" height="6" x="66" y="78" style="fill:#000"/><rect width="6" height="6" x="84" y="78" style="fill:#000"/><rect width="6" height="6" x="102" y="78" style="fill:#000"/><rect width="6" height="6" x="114" y="78" style="fill:#000"/><rect width="6" height="6" x="120" y="78" style="fill:#000"/><rect width="6" height="6" x="126" y="78" style="fill:#000"/><rect width="6" height="6" x="132" y="78" style="fill:#000"/><rect width="6" height="6" x="138" y="78" style="fill:#000"/><rect width="6" height="6" x="150" y="78" style="fill:#000"/><rect width="6" height="6" x="162" y="78" style="fill:#000"/><rect width="6" height="6" x="174" y="78" style="fill:#000"/><rect width="6" height="6" x="192" y="78" style="fill:#000"/><rect width="6" height="6" x="204" y="78" style="fill:#000"/><rect width="6" height="6" x="210" y="78" style="fill:#000"/>
<rect width="6" height="6" x="0" y="84" style="fill:#000"/><rect width="6" height="6" x="6" y="84" style="fill:#000"/><rect width="6" height="6" x="12" y="84" style="fill:#000"/><rect width="6" height="6" x="24" y="84" style="fill:#000"/><rect width="6" height="6" x="36" y="84" style="fill:#000"/><rect width="6" height="6" x="42" y="84" style="fill:#000"/><rect width="6" height="6" x="72" y="84" style="fill:#000"/><rect width="6" height="6" x="96" y="84" style="fill:#000"/><rect width="6" height="6" x="132" y="84" style="fill:#000"/><rect width="6" height="6" x="138" y="84" style="fill:#000"/><rect width="6" height="6" x="150" y="84" style="fill:#000"/><rect width="6" height="6" x="156" y="84" style="fill:#000"/><rect width="6" height="6" x="162" y="84" style="fill:#000"/><rect width="6" height="6" x="174" y="84" style="fill:#000"/><rect width="6" height="6" x="180" y="84" style="fill:#000"/><rect width="6" height="6" x="192" y="84" style="fill:#000"/><rect width="6" height="6" x="198" y="84" style="fill:#000"/><rect width="6" height="6" x="204" y="84" style="fill:#000"/><rect width="6" height="6" x="210" y="84" style="fill:#000"/><rect width="6" height="6" x="216" y="84" style="fill:#000"/>
<rect width="6" height="6" x="0" y="90" style="fill:#000"/><rect width="6" height="6" x="24" y="90" style="fill:#000"/><rect width="6" height="6" x="30" y="90" style="fill:#000"/><rect width="6" height="6" x="42" y="90" style="fill:#000"/><rect width="6" height="6" x="54" y="90" style="fill:#000"/><rect width="6" height="6" x="90" y="90" style="fill:#000"/><rect width="6" height="6" x="96" y="90" style="fill:#000"/><rect width="6" height="6" x="108" y="90" style="fill:#000"/><rect width="6" height="6" x="114" y="90" style="fill:#000"/><rect width="6" height="6" x="120" y="90" style="fill:#000"/><rect width="6" height="6" x="126" y="90" style="fill:#000"/><rect width="6" height="6" x="138" y="90" style="fill:#000"/><rect width="6" height="6" x="174" y="90" style="fill:#000"/><rect width="6" height="6" x="180" y="90" style="fill:#000"/><rect width="6" height="6" x="186" y="90" style="fill:#000"/><rect width="6" height="6" x="198" y="90" style="fill:#000"/><rect width="6" height="6" x="204" y="90" style="fill:#000"/>
<rect width="6" height="6" x="0" y="96" style="fill:#000"/><rect width="6" height="6" x="12" y="96" style="fill:#000"/><rect width="6" height="6" x="24" y="96" style="fill:#000"/><rect width="6" height="6" x="36" y="96" style="fill:#000"/><rect width="6" height="6" x="42" y="96" style="fill:#000"/><rect width="6" height="6" x="48" y="96" style="fill:#000"/><rect width="6" height="6" x="54" y="96" style="fill:#000"/><rect width="6" height="6" x="60" y="96" style="fill:#000"/><rect width="6" height="6" x="72" y="96" style="fill:#000"/><rect width="6" height="6" x="78" y="96" style="fill:#000"/><rect width="6" height="6" x="102" y="96" style="fill:#000"/><rect width="6" height="6" x="150" y="96" style="fill:#000"/><rect width="6" height="6" x="162" y="96" style="fill:#000"/><rect width="6" height="6" x="168" y="96" style="fill:#000"/><rect width="6" height="6" x="180" y="96" style="fill:#000"/><rect width="6" height="6" x="204" y="96" style="fill:#000"/>
<rect width="6" height="6" x="0" y="102" style="fill:#000"/><rect width="6" height="6" x="6" y="102" style="fill:#000"/><rect width="6" height="6" x="12" y="102" style="fill:#000"/><rect width="6" height="6" x="30" y="102" style="fill:#000"/><rect width="6" height="6" x="48" y="102" style="fill:#000"/><rect width="6" height="6" x="54" y="102" style="fill:#000"/><rect width="6" height="6" x="60" y="102" style="fill:#000"/><rect width="6" height="6" x="66" y="102" style="fill:#000"/><rect width="6" height="6" x="72" y="102" style="fill:#000"/><rect width="6" height="6" x="84" y="102" style="fill:#000"/><rect width="6" height="6" x="102" y="102" style="fill:#000"/><rect width="6" height="6" x="108" y="102" style="fill:#000"/><rect width="6" height="6" x="114" y="102" style="fill:#000"/><rect width="6" height="6" x="120" y="102" style="fill:#000"/><rect width="6" height="6" x="132" y="102" style="fill:#000"/><rect width="6" height="6" x="138" y="102" style="fill:#000"/><rect width="6" height="6" x="144" y="102" style="fill:#000"/><rect width="6" height="6" x="162" y="102" style="fill:#000"/><rect width="6" height="6" x="174" y="102" style="fill:#000"/><rect width="6" height="6" x="186" y="102" style="fill:#000"/><rect width="6" height="6" x="204" y="102" style="fill:#000"/><rect width="6" height="6" x="210" y="102" style="fill:#000"/>
<rect width="6" height="6" x="6" y="108" style="fill:#000"/><rect width="6" height="6" x="12" y="108" style="fill:#000"/><rect width="6" height="6" x="36" y="108" style="fill:#000"/><rect width="6" height="6" x="66" y="108" style="fill:#000"/><rect width="6" height="6" x="90" y="108" style="fill:#000"/><rect width="6" height="6" x="96" y="108" style="fill:#000"/><rect width="6" height="6" x="102" y="108" style="fill:#000"/><rect width="6" height="6" x="120" y="108" style="fill:#000"/><rect width="6" height="6" x="132" y="108" style="fill:#000"/><rect width="6" height="6" x="150" y="108" style="fill:#000"/><rect width="6" height="6" x="156" y="108" style="fill:#000"/><rect width="6" height="6" x="162" y="108" style="fill:#000"/><rect width="6" height="6" x="192" y="108" style="fill:#000"/><rect width="6" height="6" x="198" y="108" style="fill:#000"/><rect width="6" height="6" x="204" y="108" style="fill:#000"/><rect width="6" height="6" x="216" y="108" style="fill:#000"/>
<rect width="6" height="6" x="30" y="114" style="fill:#000"/><rect width="6" height="6" x="42" y="114" style="fill:#000"/><rect width="6" height="6" x="48" y="114" style="fill:#000"/><rect width="6" height="6" x="54" y="114" style="fill:#000"/><rect width="6" height="6" x="66" y="114" style="fill:#000"/><rect width="6" height="6" x="84" y="114" style="fill:#000"/><rect width="6" height="6" x="90" y="114" style="fill:#000"/><rect width="6" height="6" x="108" y="114" style="fill:#000"/><rect width="6" height="6" x="114" y="114" style="fill:#000"/><rect width="6" height="6" x="138" y="114" style="fill:#000"/><rect width="6" height="6" x="144" y="114" style="fill:#000"/><rect width="6" height="6" x="150" y="114" style="fill:#000"/><rect width="6" height="6" x="156" y="114" style="fill:#000"/><rect width="6" height="6" x="168" y="114" style="fill:#000"/><rect width="6" height="6" x="174" y="114" style="fill:#000"/><rect width="6" height="6" x="180" y="114" style="fill:#000"/><rect width="6" height="6" x="186" y="114" style="fill:#000"/><rect width="6" height="6" x="198" y="114" style="fill:#000"/><rect width="6" height="6" x="210" y="114" style="fill:#000"/>
<rect width="6" height="6" x="0" y="120" style="fill:#000"/><rect width="6" height="6" x="6" y="120" style="fill:#000"/><rect width="6" height="6" x="12" y="120" style="fill:#000"/><rect width="6" height="6" x="18" y="120" style="fill:#000"/><rect width="6" height="6" x="24" y="120" style="fill:#000"/><rect width="6" height="6" x="30" y="120" style="fill:#000"/><rect width="6" height="6" x="36" y="120" style="fill:#000"/><rect width="6" height="6" x="42" y="120" style="fill:#000"/><rect width="6" height="6" x="48" y="120" style="fill:#000"/><rect width="6" height="6" x="78" y="120" style="fill:#000"/><rect width="6" height="6" x="84" y="120" style="fill:#000"/><rect width="6" height="6" x="96" y="120" style="fill:#000"/><rect width="6" height="6" x="108" y="120" style="fill:#000"/><rect width="6" height="6" x="120" y="120" style="fill:#000"/><rect width="6" height="6" x="126" y="120" style="fill:#000"/><rect width="6" height="6" x="132" y="120" style="fill:#000"/><rect width="6" height="6" x="138" y="120" style="fill:#000"/><rect width="6" height="6" x="144" y="120" style="fill:#000"/><rect width="6" height="6" x="162" y="120" style="fill:#000"/><rect width="6" height="6" x="168" y="120" style="fill:#000"/><rect width="6" height="6" x="180" y="120" style="fill:#000"/><rect width="6" height="6" x="192" y="120" style="fill:#000"/><rect width="6" height="6" x="198" y="120" style="fill:#000"/><rect width="6" height="6" x="216" y="120" style="fill:#000"/>
<rect width="6" height="6" x="0" y="126" style="fill:#000"/><rect width="6" height="6" x="6" y="126" style="fill:#000"/><rect width="6" height="6" x="24" y="126" style="fill:#000"/><rect width="6" height="6" x="30" y="126" style="fill:#000"/><rect width="6" height="6" x="78" y="126" style="fill:#000"/><rect width="6" height="6" x="84" y="126" style="fill:#000"/><rect width="6" height="6" x="90" y="126" style="fill:#000"/><rect width="6" height="6" x="96" y="126" style="fill:#000"/><rect width="6" height="6" x="102" y="126" style="fill:#000"/><rect width="6" height="6" x="108" y="126" style="fill:#000"/><rect width="6" height="6" x="120" y="126" style="fill:#000"/><rect width="6" height="6" x="126" y="126" style="fill:#000"/><rect width="6" height="6" x="138" y="126" style="fill:#000"/><rect width="6" height="6" x="144" y="126" style="fill:#000"/><rect width="6" height="6" x="150" y="126" style="fill:#000"/><rect width="6" height="6" x="156" y="126" style="fill:#000"/><rect width="6" height="6" x="162" y="126" style="fill:#000"/><rect width="6" height="6" x="168" y="126" style="fill:#000"/><rect width="6" height="6" x="186" y="126" style="fill:#000"/><rect width="6" height="6" x="192" y="126" style="fill:#000"/><rect width="6" height="6" x="198" y="126" style="fill:#000"/><rect width="6" height="6" x="210" y="126" style="fill:#000"/>
<rect width="6" height="6" x="0" y="132" style="fill:#000"/><rect width="6" height="6" x="12" y="132" style="fill:#000"/><rect width="6" height="6" x="24" y="132" style="fill:#000"/><rect width="6" height="6" x="36" y="132" style="fill:#000"/><rect width="6" height="6" x="42" y="132" style="fill:#000"/><rect width="6" height="6" x="54" y="132" style="fill:#000"/><rect width="6" height="6" x="60" y="132" style="fill:#000"/><rect width="6" height="6" x="66" y="132" style="fill:#000"/><rect width="6" height="6" x="84" y="132" style="fill:#000"/><rect width="6" height="6" x="108" y="132" style="fill:#000"/><rect width="6" height="6" x="114" y="132" style="fill:#000"/><rect width="6" height="6" x="150" y="132" style="fill:#000"/><rect width="6" height="6" x="162" y="132" style="fill:#000"/><rect width="6" height="6" x="168" y="132" style="fill:#000"/><rect width="6" height="6" x="192" y="132" style="fill:#000"/><rect width="6" height="6" x="198" y="132" style="fill:#000"/><rect width="6" height="6" x="204" y="132" style="fill:#000"/><rect width="6" height="6" x="210" y="132" style="fill:#000"/><rect width="6" height="6" x="216" y="132" style="fill:#000"/>
<rect width="6" height="6" x="6" y="138" style="fill:#000"/><rect width="6" height="6" x="18" y="138" style="fill:#000"/><rect width="6" height="6" x="24" y="138" style="fill:#000"/><rect width="6" height="6" x="60" y="138" style="fill:#000"/><rect width="6" height="6" x="78" y="138" style="fill:#000"/><rect width="6" height="6" x="84" y="138" style="fill:#000"/><rect width="6" height="6" x="96" y="138" style="fill:#000"/><rect width="6" height="6" x="120" y="138" style="fill:#000"/><rect width="6" height="6" x="144" y="138" style="fill:#000"/><rect width="6" height="6" x="150" y="138" style="fill:#000"/><rect width="6" height="6" x="162" y="138" style="fill:#000"/><rect width="6" height="6" x="174" y="138" style="fill:#000"/><rect width="6" height="6" x="186" y="138" style="fill:#000"/><rect width="6" height="6" x="198" y="138" style="fill:#000"/><rect width="6" height="6" x="204" y="138" style="fill:#000"/>
<rect width="6" height="6" x="0" y="144" style="fill:#000"/><rect width="6" height="6" x="24" y="144" style="fill:#000"/><rect width="6" height="6" x="36" y="144" style="fill:#000"/><rect width="6" height="6" x="42" y="144" style="fill:#000"/><rect width="6" height="6" x="54" y="144" style="fill:#000"/><rect width="6" height="6" x="60" y="144" style="fill:#000"/><rect width="6" height="6" x="84" y="144" style="fill:#000"/><rect width="6" height="6" x="102" y="144" style="fill:#000"/><rect width="6" height="6" x="108" y="144" style="fill:#000"/><rect width="6" height="6" x="114" y="144" style="fill:#000"/><rect width="6" height="6" x="120" y="144" style="fill:#000"/><rect width="6" height="6" x="144" y="144" style="fill:#000"/><rect width="6" height="6" x="150" y="144" style="fill:#000"/><rect width="6" height="6" x="186" y="144" style="fill:#000"/><rect width="6" height="6" x="192" y="144" style="fill:#000"/><rect width="6" height="6" x="198" y="144" style="fill:#000"/><rect width="6" height="6" x="210" y="144" style="fill:#000"/><rect width="6" height="6" x="216" y="144" style="fill:#000"/>
<rect width="6" height="6" x="0" y="150" style="fill:#000"/><rect width="6" height="6" x="6" y="150" style="fill:#000"/><rect width="6" height="6" x="12" y="150" style="fill:#000"/><rect width="6" height="6" x="18" y="150" style="fill:#000"/><rect width="6" height="6" x="42" y="150" style="fill:#000"/><rect width="6" height="6" x="54" y="150" style="fill:#000"/><rect width="6" height="6" x="60" y="150" style="fill:#000"/><rect width="6" height="6" x="66" y="150" style="fill:#000"/><rect width="6" height="6" x="72" y="150" style="fill:#000"/><rect width="6" height="6" x="102" y="150" style="fill:#000"/><rect width="6" height="6" x="114" y="150" style="fill:#000"/><rect width="6" height="6" x="132" y="150" style="fill:#000"/><rect width="6" height="6" x="150" y="150" style="fill:#000"/><rect width="6" height="6" x="156" y="150" style="fill:#000"/><rect width="6" height="6" x="180" y="150" style="fill:#000"/><rect width="6" height="6" x="198" y="150" style="fill:#000"/><rect width="6" height="6" x="204" y="150" style="fill:#000"/>
<rect width="6" height="6" x="0" y="156" style="fill:#000"/><rect width="6" height="6" x="6" y="156" style="fill:#000"/><rect width="6" height="6" x="24" y="156" style="fill:#000"/><rect width="6" height="6" x="30" y="156" style="fill:#000"/><rect width="6" height="6" x="36" y="156" style="fill:#000"/><rect width="6" height="6" x="54" y="156" style="fill:#000"/><rect width="6" height="6" x="60" y="156" style="fill:#000"/><rect width="6" height="6" x="66" y="156" style="fill:#000"/><rect width="6" height="6" x="72" y="156" style="fill:#000"/><rect width="6" height="6" x="78" y="156" style="fill:#000"/><rect width="6" height="6" x="84" y="156" style="fill:#000"/><rect width="6" height="6" x="90" y="156" style="fill:#000"/><rect width="6" height="6" x="138" y="156" style="fill:#000"/><rect width="6" height="6" x="144" y="156" style="fill:#000"/><rect width="6" height="6" x="150" y="156" style="fill:#000"/><rect width="6" height="6" x="162" y="156" style="fill:#000"/><rect width="6" height="6" x="186" y="156" style="fill:#000"/><rect width="6" height="6" x="192" y="156" style="fill:#000"/><rect width="6" height="6" x="210" y="156" style="fill:#000"/><rect width="6" height="6" x="216" y="156" style="fill:#000"/>
<rect width="6" height="6" x="0" y="162" style="fill:#000"/><rect width="6" height="6" x="18" y="162" style="fill:#000"/><rect width="6" height="6" x="24" y="162" style="fill:#000"/><rect width="6" height="6" x="48" y="162" style="fill:#000"/><rect width="6" height="6" x="54" y="162" style="fill:#000"/><rect width="6" height="6" x="60" y="162" style="fill:#000"/><rect width="6" height="6" x="78" y="162" style="fill:#000"/><rect width="6" height="6" x="90" y="162" style="fill:#000"/><rect width="6" height="6" x="96" y="162" style="fill:#000"/><rect width="6" height="6" x="102" y="162" style="fill:#000"/><rect width="6" height="6" x="120" y="162" style="fill:#000"/><rect width="6" height="6" x="138" y="162" style="fill:#000"/><rect width="6" height="6" x="156" y="162" style="fill:#000"/><rect width="6" height="6" x="168" y="162" style="fill:#000"/><rect width="6" height="6" x="186" y="162" style="fill:#000"/><rect width="6" height="6" x="204" y="162" style="fill:#000"/><rect width="6" height="6" x="210" y="162" style="fill:#000"/>
<rect width="6" height="6" x="0" y="168" style="fill:#000"/><rect width="6" height="6" x="24" y="168" style="fill:#000"/><rect width="6" height="6" x="36" y="168" style="fill:#000"/><rect width="6" height="6" x="42" y="168" style="fill:#000"/><rect width="6" height="6" x="54" y="168" style="fill:#000"/><rect width="6" height="6" x="66" y="168" style="fill:#000"/><rect width="6" height="6" x="78" y="168" style="fill:#000"/><rect width="6" height="6" x="84" y="168" style="fill:#000"/><rect width="6" height="6" x="102" y="168" style="fill:#000"/><rect width="6" height="6" x="150" y="168" style="fill:#000"/><rect width="6" height="6" x="162" y="168" style="fill:#000"/><rect width="6" height="6" x="168" y="168" style="fill:#000"/><rect width="6" height="6" x="174" y="168" style="fill:#000"/><rect width="6" height="6" x="180" y="168" style="fill:#000"/><rect width="6" height="6" x="186" y="168" style="fill:#000"/><rect width="6" height="6" x="192" y="168" style="fill:#000"/><rect width="6" height="6" x="198" y="168" style="fill:#000"/><rect width="6" height="6" x="210" y="168" style="fill:#000"/><rect width="6" height="6" x="216" y="168" style="fill:#000"/>
<rect width="6" height="6" x="48" y="174" style="fill:#000"/><rect width="6" height="6" x="54" y="174" style="fill:#000"/><rect width="6" height="6" x="72" y="174" style="fill:#000"/><rect width="6" height="6" x="78" y="174" style="fill:#000"/><rect width="6" height="6" x="96" y="174" style="fill:#000"/><rect width="6" height="6" x="102" y="174" style="fill:#000"/><rect width="6" height="6" x="108" y="174" style="fill:#000"/><rect width="6" height="6" x="120" y="174" style="fill:#000"/><rect width="6" height="6" x="126" y="174" style="fill:#000"/><rect width="6" height="6" x="132" y="174" style="fill:#000"/><rect width="6" height="6" x="144" y="174" style="fill:#000"/><rect width="6" height="6" x="150" y="174" style="fill:#000"/><rect width="6" height="6" x="162" y="174" style="fill:#000"/><rect width="6" height="6" x="168" y="174" style="fill:#000"/><rect width="6" height="6" x="192" y="174" style="fill:#000"/><rect width="6" height="6" x="198" y="174" style="fill:#000"/><rect width="6" height="6" x="204" y="174" style="fill:#000"/><rect width="6" height="6" x="210" y="174" style="fill:#000"/>
<rect width="6" height="6" x="0" y="180" style="fill:#000"/><rect width="6" height="6" x="6" y="180" style="fill:#000"/><rect width="6" height="6" x="12" y="180" style="fill:#000"/><rect width="6" height="6" x="18" y="180" style="fill:#000"/><rect width="6" height="6" x="24" y="180" style="fill:#000"/><rect width="6" height="6" x="30" y="180" style="fill:#000"/><rect width="6" height="6" x="36" y="180" style="fill:#000"/><rect width="6" height="6" x="48" y="180" style="fill:#000"/><rect width="6" height="6" x="96" y="180" style="fill:#000"/><rect width="6" height="6" x="102" y="180" style="fill:#000"/><rect width="6" height="6" x="126" y="180" style="fill:#000"/><rect width="6" height="6" x="138" y="180" style="fill:#000"/><rect width="6" height="6" x="144" y="180" style="fill:#000"/><rect width="6" height="6" x="150" y="180" style="fill:#000"/><rect width="6" height="6" x="156" y="180" style="fill:#000"/><rect width="6" height="6" x="168" y="180" style="fill:#000"/><rect width="6" height="6" x="180" y="180" style="fill:#000"/><rect width="6" height="6" x="192" y="180" style="fill:#000"/><rect width="6" height="6" x="198" y="180" style="fill:#000"/><rect width="6" height="6" x="204" y="180" style="fill:#000"/><rect width="6" height="6" x="210" y="180" style="fill:#000"/><rect width="6" height="6" x="216" y="180" style="fill:#000"/>
<rect width="6" height="6" x="0" y="186" style="fill:#000"/><rect width="6" height="6" x="36" y="186" style="fill:#000"/><rect width="6" height="6" x="60" y="186" style="fill:#000"/><rect width="6" height="6" x="66" y="186" style="fill:#000"/><rect width="6" height="6" x="78" y="186" style="fill:#000"/><rect width="6" height="6" x="84" y="186" style="fill:#000"/><rect width="6" height="6" x="96" y="186" style="fill:#000"/><rect width="6" height="6" x="102" y="186" style="fill:#000"/><rect width="6" height="6" x="108" y="186" style="fill:#000"/><rect width="6" height="6" x="132" y="186" style="fill:#000"/><rect width="6" height="6" x="138" y="186" style="fill:#000"/><rect width="6" height="6" x="144" y="186" style="fill:#000"/><rect width="6" height="6" x="150" y="186" style="fill:#000"/><rect width="6" height="6" x="162" y="186" style="fill:#000"/><rect width="6" height="6" x="168" y="186" style="fill:#000"/><rect width="6" height="6" x="192" y="186" style="fill:#000"/><rect width="6" height="6" x="198" y="186" style="fill:#000"/><rect width="6" height="6" x="210" y="186" style="fill:#000"/><rect width="6" height="6" x="216" y="186" style="fill:#000"/>
<rect width="6" height="6" x="0" y="192" style="fill:#000"/><rect width="6" height="6" x="12" y="192" style="fill:#000"/><rect width="6" height="6" x="18" y="192" style="fill:#000"/><rect width="6" height="6" x="24" y="192" style="fill:#000"/><rect width="6" height="6" x="36" y="192" style="fill:#000"/><rect width="6" height="6" x="48" y="192" style="fill:#000"/><rect width="6" height="6" x="60" y="192" style="fill:#000"/><rect width="6" height="6" x="66" y="192" style="fill:#000"/><rect width="6" height="6" x="72" y="192" style="fill:#000"/><rect width="6" height="6" x="90" y="192" style="fill:#000"/><rect width="6" height="6" x="96" y="192" style="fill:#000"/><rect width="6" height="6" x="126" y="192" style="fill:#000"/><rect width="6" height="6" x="132" y="192" style="fill:#000"/><rect width="6" height="6" x="156" y="192" style="fill:#000"/><rect width="6" height="6" x="162" y="192" style="fill:#000"/><rect width="6" height="6" x="168" y="192" style="fill:#000"/><rect width="6" height="6" x="174" y="192" style="fill:#000"/><rect width="6" height="6" x="180" y="192" style="fill:#000"/><rect width="6" height="6" x="186" y="192" style="fill:#000"/><rect width="6" height="6" x="192" y="192" style="fill:#000"/>
<rect width="6" height="6" x="0" y="198" style="fill:#000"/><rect width="6" height="6" x="12" y="198" style="fill:#000"/><rect width="6" height="6" x="18" y="198" style="fill:#000"/><rect width="6" height="6" x="24" y="198" style="fill:#000"/><rect width="6" height="6" x="36" y="198" style="fill:#000"/><rect width="6" height="6" x="48" y="198" style="fill:#000"/><rect width="6" height="6" x="54" y="198" style="fill:#000"/><rect width="6" height="6" x="72" y="198" style="fill:#000"/><rect width="6" height="6" x="84" y="198" style="fill:#000"/><rect width="6" height="6" x="102" y="198" style="fill:#000"/><rect width="6" height="6" x="108" y="198" style="fill:#000"/><rect width="6" height="6" x="114" y="198" style="fill:#000"/><rect width="6" height="6" x="144" y="198" style="fill:#000"/><rect width="6" height="6" x="150" y="198" style="fill:#000"/><rect width="6" height="6" x="156" y="198" style="fill:#000"/><rect width="6" height="6" x="162" y="198" style="fill:#000"/><rect width="6" height="6" x="180" y="198" style="fill:#000"/><rect width="6" height="6" x="204" y="198" style="fill:#000"/>
<rect width="6" height="6" x="0" y="204" style="fill:#000"/><rect width="6" height="6" x="12" y="204" style="fill:#000"/><rect width="6" height="6" x="18" y="204" style="fill:#000"/><rect width="6" height="6" x="24" y="204" style="fill:#000"/><rect width="6" height="6" x="36" y="204" style="fill:#000"/><rect width="6" height="6" x="60" y="204" style="fill:#000"/><rect width="6" height="6" x="84" y="204" style="fill:#000"/><rect width="6" height="6" x="96" y="204" style="fill:#000"/><rect width="6" height="6" x="102" y="204" style="fill:#000"/><rect width="6" height="6" x="120" y="204" style="fill:#000"/><rect width="6" height="6" x="138" y="204" style="fill:#000"/><rect width="6" height="6" x="150" y="204" style="fill:#000"/><rect width="6" height="6" x="168" y="204" style="fill:#000"/><rect width="6" height="6" x="174" y="204" style="fill:#000"/><rect width="6" height="6" x="186" y="204" style="fill:#000"/><rect width="6" height="6" x="192" y="204" style="fill:#000"/><rect width="6" height="6" x="210" y="204" style="fill:#000"/><rect width="6" height="6" x="216" y="204" style="fill:#000"/>
<rect width="6" height="6" x="0" y="210" style="fill:#000"/><rect width="6" height="6" x="36" y="210" style="fill:#000"/><rect width="6" height="6" x="60" y="210" style="fill:#000"/><rect width="6" height="6" x="66" y="210" style="fill:#000"/><rect width="6" height="6" x="84" y="210" style="fill:#000"/><rect width="6" height="6" x="90" y="210" style="fill:#000"/><rect width="6" height="6" x="96" y="210" style="fill:#000"/><rect width="6" height="6" x="102" y="210" style="fill:#000"/><rect width="6" height="6" x="114" y="210" style="fill:#000"/><rect width="6" height="6" x="126" y="210" style="fill:#000"/><rect width="6" height="6" x="138" y="210" style="fill:#000"/><rect width="6" height="6" x="144" y="210" style="fill:#000"/><rect width="6" height="6" x="156" y="210" style="fill:#000"/><rect width="6" height="6" x="186" y="210" style="fill:#000"/><rect width="6" height="6" x="192" y="210" style="fill:#000"/><rect width="6" height="6" x="198" y="210" style="fill:#000"/><rect width="6" height="6" x="204" y="210" style="fill:#000"/><rect width="6" height="6" x="210" y="210" style="fill:#000"/><rect width="6" height="6" x="216" y="210" style="fill:#000"/>
<rect width="6" height="6" x="0" y="216" style="fill:#000"/><rect width="6" height="6" x="6" y="216" style="fill:#000"/><rect width="6" height="6" x="12" y="216" style="fill:#000"/><rect width="6" height="6" x="18" y="216" style="fill:#000"/><rect width="6" height="6" x="24" y="216" style="fill:#000"/><rect width="6" height="6" x="30" y="216" style="fill:#000"/><rect width="6" height="6" x="36" y="216" style="fill:#000"/><rect width="6" height="6" x="60" y="216" style="fill:#000"/><rect width="6" height="6" x="78" y="216" style="fill:#000"/><rect width="6" height="6" x="90" y="216" style="fill:#000"/><rect width="6" height="6" x="120" y="216" style="fill:#000"/><rect width="6" height="6" x="126" y="216" style="fill:#000"/><rect width="6" height="6" x="132" y="216" style="fill:#000"/><rect width="6" height="6" x="138" y="216" style="fill:#000"/><rect width="6" height="6" x="156" y="216" style="fill:#000"/><rect width="6" height="6" x="168" y="216" style="fill:#000"/><rect width="6" height="6" x="180" y="216" style="fill:#000"/><rect width="6" height="6" x="186" y="216" style="fill:#000"/><rect width="6" height="6" x="192" y="216" style="fill:#000"/><rect width="6" height="6" x="198" y="216" style="fill:#000"/><rect width="6" height="6" x="216" y="216" style="fill:#000"/>
</svg>
